<svg xmlns="http://www.w3.org/2000/svg" width="512" height="512" viewBox="0 0 512 512" role="img" aria-label="CupCalendar World Cup icon">
  <defs>
    <linearGradient id="cup" x1="0" x2="1" y1="0" y2="1">
      <stop offset="0" stop-color="#fff4b8"/>
      <stop offset=".48" stop-color="#d4af37"/>
      <stop offset="1" stop-color="#9b6b16"/>
    </linearGradient>
    <linearGradient id="field" x1="0" x2="1" y1="0" y2="1">
      <stop offset="0" stop-color="#00885a"/>
      <stop offset="1" stop-color="#003478"/>
    </linearGradient>
  </defs>
  <rect width="512" height="512" rx="104" fill="#00204e"/>
  <circle cx="256" cy="256" r="190" fill="url(#field)"/>
  <circle cx="256" cy="256" r="176" fill="none" stroke="#ffffff" stroke-width="14" opacity=".9"/>
  <path d="M171 124h170v42c0 58-32 102-85 119-53-17-85-61-85-119z" fill="url(#cup)"/>
  <path d="M166 150h-44c4 58 36 91 80 100" fill="none" stroke="#d4af37" stroke-width="26" stroke-linecap="round"/>
  <path d="M346 150h44c-4 58-36 91-80 100" fill="none" stroke="#d4af37" stroke-width="26" stroke-linecap="round"/>
  <path d="M221 286h70v54h-70z" fill="url(#cup)"/>
  <path d="M188 344h136l20 48H168z" fill="url(#cup)"/>
  <circle cx="256" cy="199" r="42" fill="#ffffff" opacity=".95"/>
  <path d="M256 158v82M215 199h82M228 170l56 58M284 170l-56 58" stroke="#00204e" stroke-width="8" stroke-linecap="round" opacity=".86"/>
  <text x="256" y="445" text-anchor="middle" font-family="Inter, Arial, sans-serif" font-size="56" font-weight="900" fill="#ffffff">2026</text>
</svg>