<svg xmlns="http://www.w3.org/2000/svg" width="640" height="420" viewBox="0 0 640 420" role="img" aria-label="Portugal team mark">
  <defs>
    <linearGradient id="g" x1="0" x2="1" y1="0" y2="1">
      <stop offset="0" stop-color="#006600"/>
      <stop offset="1" stop-color="#ffcc00"/>
    </linearGradient>
    <filter id="s" x="-20%" y="-20%" width="140%" height="140%">
      <feDropShadow dx="0" dy="18" stdDeviation="18" flood-color="#001a43" flood-opacity=".22"/>
    </filter>
  </defs>
  <rect width="640" height="420" rx="28" fill="#f8fafc"/>
  <rect x="0" y="0" width="640" height="140" fill="#006600"/>
  <rect x="0" y="140" width="640" height="140" fill="#ff0000"/>
  <rect x="0" y="280" width="640" height="140" fill="#ffcc00"/>
  <path d="M320 62l155 58v108c0 88-61 139-155 171-94-32-155-83-155-171V120l155-58z" fill="url(#g)" filter="url(#s)" opacity=".94"/>
  <path d="M320 88l126 47v91c0 68-46 109-126 138-80-29-126-70-126-138v-91l126-47z" fill="none" stroke="#fff" stroke-width="10" opacity=".9"/>
  <circle cx="320" cy="214" r="62" fill="#fff" opacity=".96"/>
  <text x="320" y="232" text-anchor="middle" font-family="Inter, Arial, sans-serif" font-size="54" font-weight="800" fill="#00204e">POR</text>
  <text x="320" y="388" text-anchor="middle" font-family="Inter, Arial, sans-serif" font-size="24" font-weight="800" fill="#111c2d">Portugal</text>
</svg>